PathFileType	4	(X/Y/Z)	/Users/niels/Desktop/University/Third Semester/Perception and Action/Exam/Gymnastics Motion Tracking/Code for Gym Tracking/Analyzed Data/Webcam_Backflip/id8_5_pure_Sports2D/id8_5_pure_Sports2D_px_person00.trc
DataRate	CameraRate	NumFrames	NumMarkers	Units	OrigDataRate	OrigDataStartFrame	OrigNumFrames
29.8125	29.8125	7	22	m	29.8125	60	160
Frame#	Time	Hip			RHip			RKnee			RAnkle			RBigToe			RSmallToe			RHeel			LHip			LKnee			LAnkle			LBigToe			LSmallToe			LHeel			Neck			Head			Nose			RShoulder			RElbow			RWrist			LShoulder			LElbow			LWrist		
		X1	Y1	Z1	X2	Y2	Z2	X3	Y3	Z3	X4	Y4	Z4	X5	Y5	Z5	X6	Y6	Z6	X7	Y7	Z7	X8	Y8	Z8	X9	Y9	Z9	X10	Y10	Z10	X11	Y11	Z11	X12	Y12	Z12	X13	Y13	Z13	X14	Y14	Z14	X15	Y15	Z15	X16	Y16	Z16	X17	Y17	Z17	X18	Y18	Z18	X19	Y19	Z19	X20	Y20	Z20	X21	Y21	Z21	X22	Y22	Z22
60	2.012578616352201	0.9135497225260948	-0.5253644213584777	0.0	0.9170306317076371	-0.5250377725963914	0.0	0.9598030407268693	-0.614409617091812	0.0	0.9246428813333679	-0.7063892829773999	0.0	0.9572640260490819	-0.7327043406287582	0.0	0.9482396113383564	-0.7338077092686873	0.0	0.9127862020346079	-0.718920462288036	0.0	0.9131855277848836	-0.5240758448098071	0.0	0.9553221676977767	-0.6132602071929184	0.0	0.922822249036028	-0.7038843200506903	0.0	0.9585358308145324	-0.7314815285172434	0.0	0.9504360614209533	-0.7250646577481323	0.0	0.9094349484953123	-0.7123948667525105	0.0	0.9280508825492838	-0.4013699014433364	0.0	0.957086480026838	-0.34059229712173594	0.0	0.9566405990685708	-0.37001439389424146	0.0	0.9259552376551483	-0.40655862476607013	0.0	0.9651123453643009	-0.35934175301747734	0.0	0.9943803759330346	-0.30895235298085827	0.0	0.9221173149035238	-0.40400901769474723	0.0	0.9560575995999251	-0.3624012454136832	0.0	0.982023413727625	-0.3152324631239491	0.0
61	2.0461215932914043	0.9199644838010007	-0.5179515103431769	0.0	0.9237242485963558	-0.5178718814590492	0.0	0.9622212294455451	-0.608480905749498	0.0	0.9405862301168162	-0.7069235178021155	0.0	0.97463355974273	-0.7328095329595626	0.0	0.9650864885637835	-0.7344111175359693	0.0	0.9295734213363879	-0.7208246360594426	0.0	0.919869145962627	-0.5168044453815824	0.0	0.9582824876638344	-0.6074759215792399	0.0	0.9383101230354033	-0.703416017135281	0.0	0.9751071895991841	-0.7303181012753734	0.0	0.9665133669974082	-0.7231722707567617	0.0	0.9257410580000554	-0.7133234002463361	0.0	0.9331993027526416	-0.3913134273761751	0.0	0.959838124293249	-0.33066117094723907	0.0	0.9600554397553942	-0.35948984340510365	0.0	0.9315772527485423	-0.3979716520676504	0.0	0.9707875804572451	-0.35188714193990606	0.0	1.0017970578946855	-0.30112429439083055	0.0	0.9274886548471869	-0.3953563349071245	0.0	0.9615839210475751	-0.3540832028604637	0.0	0.9876168899449891	-0.3082342239085415	0.0
62	2.079664570230608	0.9267103312714154	-0.514930789041012	0.0	0.930773819372279	-0.5149914608385513	0.0	0.9645947871742264	-0.6073507554994659	0.0	0.9546289568550376	-0.7094489542160134	0.0	0.9891459057642426	-0.7352058133962013	0.0	0.9792280842249889	-0.7372342463717845	0.0	0.944471337848929	-0.7240786763336611	0.0	0.9267838971937595	-0.5137634777655073	0.0	0.9612569954652131	-0.6062199923689928	0.0	0.9520692653016504	-0.7050075443378817	0.0	0.9876827436141135	-0.7312555201065785	0.0	0.9790850514569267	-0.7239103738028315	0.0	0.940690757005549	-0.7157965039665718	0.0	0.9381347092220365	-0.38582050046007405	0.0	0.9615698768105599	-0.3255864531344839	0.0	0.9622798672802966	-0.3537448957470905	0.0	0.9368663257068304	-0.3935613539557767	0.0	0.9749504574511189	-0.3470312629243885	0.0	1.0058380295884988	-0.2954496687638616	0.0	0.9327001264319811	-0.39090216965010827	0.0	0.965754140620109	-0.348802540335118	0.0	0.9899062127674749	-0.30372579064074223	0.0
63	2.113207547169811	0.9337627700347235	-0.5160743385358627	0.0	0.9382168062636724	-0.5161959856781831	0.0	0.9673666104001591	-0.6107592487599105	0.0	0.9662385305307991	-0.7140394445176568	0.0	1.0003793157007805	-0.7398925679352053	0.0	0.990275744666061	-0.7422470953565541	0.0	0.9568693468601529	-0.7288654283595803	0.0	0.9338288073083222	-0.5146904821309238	0.0	0.9645136298056627	-0.6091171987764894	0.0	0.9633550088022987	-0.7086718905725519	0.0	0.9959894650807583	-0.7341326645137451	0.0	0.9876597003794002	-0.727187889709437	0.0	0.9534687506305274	-0.7197067458412545	0.0	0.9428530125328136	-0.3851266635805304	0.0	0.9624557985817522	-0.32540391719002615	0.0	0.9634818473956843	-0.3527163612316895	0.0	0.9418128863768195	-0.3934696391808739	0.0	0.9777495716018136	-0.344624538806515	0.0	1.0066942960850367	-0.2920266275152924	0.0	0.9375459290101708	-0.3908053067142668	0.0	0.9685190152086375	-0.34657625351547217	0.0	0.9889684974813556	-0.3018901106391816	0.0
64	2.1467505241090143	0.9411910816801945	-0.5211690369044037	0.0	0.9460617811890656	-0.5213705393290277	0.0	0.9707966803587628	-0.6181885353523706	0.0	0.975148974644751	-0.7209563454367035	0.0	1.0081349509387625	-0.7468662628808909	0.0	0.9979951223696463	-0.749520940222056	0.0	0.9664402973103984	-0.735624740438117	0.0	0.9409466849667131	-0.5194523309996792	0.0	0.968157647630888	-0.6156591618485037	0.0	0.9718007892178832	-0.7146253669280852	0.0	1.0003706329827395	-0.7389099370139292	0.0	0.9924355981912828	-0.7329489564473625	0.0	0.9635682104338366	-0.7253064154980603	0.0	0.947415851413782	-0.3892600457314823	0.0	0.9628841537124049	-0.3298215781465249	0.0	0.9642963174762784	-0.356228137056147	0.0	0.9464355765832014	-0.39772868475373313	0.0	0.9793920997380736	-0.3447479467002405	0.0	1.004855929734795	-0.2911953413726634	0.0	0.9420021691523272	-0.39517751145426083	0.0	0.9700043472222278	-0.3476100340849801	0.0	0.9851724849749487	-0.3032205926177767	0.0
65	2.180293501048218	0.9490701183837197	-0.529920322424792	0.0	0.9542255111778705	-0.5303879141390132	0.0	0.9749238392040432	-0.6289025300560247	0.0	0.981286545640543	-0.7302438735997093	0.0	1.0123986616926224	-0.7559456607181901	0.0	1.0023224245066882	-0.75894330150555	0.0	0.9730637951024477	-0.7445768094239852	0.0	0.948159202399385	-0.5279557275985038	0.0	0.9721949051790634	-0.6252894707951314	0.0	0.9774345602561204	-0.7229208073548565	0.0	1.0016670050386753	-0.7455924421922719	0.0	0.9942291755393651	-0.7410779021076676	0.0	0.970868634553537	-0.7328339158887414	0.0	0.9518843942670216	-0.39795908773081623	0.0	0.9632475627423317	-0.3383024727800058	0.0	0.9654493022533317	-0.36398107684285536	0.0	0.9507490869794474	-0.4061191389597053	0.0	0.9801417596906071	-0.34770998408401205	0.0	1.001014610562354	-0.29348068918752857	0.0	0.9461630657961411	-0.40385316369272467	0.0	0.9705634231351106	-0.3521296204651907	0.0	0.9793682933946644	-0.30825749045242745	0.0
66	2.213836477987421	0.9573292792527349	-0.5418080971850732	0.0	0.9624709495488626	-0.5428398940553012	0.0	0.979514885501387	-0.6420872208951224	0.0	0.9847739823288616	-0.74155868420557	0.0	1.01344695016955	-0.7667667250961614	0.0	1.003517548807225	-0.7701663844208199	0.0	0.976830083714232	-0.7555081668031923	0.0	0.9554926481511514	-0.5398682274937543	0.0	0.9765100196724475	-0.6374309657448562	0.0	0.9805555749843653	-0.7332955218486594	0.0	1.0009743850967545	-0.7541406666750305	0.0	0.9941921714526005	-0.7513469340554493	0.0	0.9755137904115903	-0.7422794564187781	0.0	0.9562555005936978	-0.41057239328795375	0.0	0.9638069388824917	-0.3501559933493051	0.0	0.9673996807891379	-0.3754577946825635	0.0	0.9547837778645824	-0.41801891940295954	0.0	0.980356929836352	-0.35391219969608523	0.0	0.9959925184310995	-0.2993608154144085	0.0	0.9501175018455185	-0.4162058824731556	0.0	0.9707212155685176	-0.36018064468584876	0.0	0.9729240879484554	-0.31713057962092595	0.0
